HIERARCHY
ROOT Hips
{
	OFFSET 0.00000 0.00000 0.00000
	CHANNELS 6 Xposition Yposition Zposition Zrotation Yrotation Xrotation 
	JOINT LHipJoint
	{
		OFFSET 0 0 0
		CHANNELS 3 Zrotation Yrotation Xrotation
		JOINT LeftUpLeg
		{
			OFFSET 1.67711 -1.75950 0.70433
			CHANNELS 3 Zrotation Yrotation Xrotation
			JOINT LeftLeg
			{
				OFFSET 2.44937 -6.72958 0.00000
				CHANNELS 3 Zrotation Yrotation Xrotation
				JOINT LeftFoot
				{
					OFFSET 2.61292 -7.17894 0.00000
					CHANNELS 3 Zrotation Yrotation Xrotation
					JOINT LeftToeBase
					{
						OFFSET 0.17811 -0.48914 1.82515
						CHANNELS 3 Zrotation Yrotation Xrotation
						End Site
						{
							OFFSET -0.00112 -0.00292 0.95564
						}
					}
				}
			}
		}
	}
	JOINT RHipJoint
	{
		OFFSET 0 0 0
		CHANNELS 3 Zrotation Yrotation Xrotation
		JOINT RightUpLeg
		{
			OFFSET -1.61866 -1.75949 0.70433
			CHANNELS 3 Zrotation Yrotation Xrotation
			JOINT RightLeg
			{
				OFFSET -2.36243 -6.49072 0.00000
				CHANNELS 3 Zrotation Yrotation Xrotation
				JOINT RightFoot
				{
					OFFSET -2.64336 -7.26259 0.00000
					CHANNELS 3 Zrotation Yrotation Xrotation
					JOINT RightToeBase
					{
						OFFSET -0.18169 -0.49935 1.90192
						CHANNELS 3 Zrotation Yrotation Xrotation
						End Site
						{
							OFFSET 0.00039 0.00229 0.99264
						}
					}
				}
			}
		}
	}
	JOINT LowerBack
	{
		OFFSET 0 0 0
		CHANNELS 3 Zrotation Yrotation Xrotation
		JOINT Spine
		{
			OFFSET -0.01926 2.19655 -0.12599
			CHANNELS 3 Zrotation Yrotation Xrotation
			JOINT Spine1
			{
				OFFSET 0.01663 2.20532 -0.00079
				CHANNELS 3 Zrotation Yrotation Xrotation
				JOINT Neck
				{
					OFFSET 0 0 0
					CHANNELS 3 Zrotation Yrotation Xrotation
					JOINT Neck1
					{
						OFFSET 0.10604 1.75174 0.14226
						CHANNELS 3 Zrotation Yrotation Xrotation
						JOINT Head
						{
							OFFSET -0.09898 1.68516 -0.48414
							CHANNELS 3 Zrotation Yrotation Xrotation
							End Site
							{
								OFFSET -0.02896 1.78316 -0.18415
							}
						}
					}
				}
				JOINT LeftShoulder
				{
					OFFSET 0 0 0
					CHANNELS 3 Zrotation Yrotation Xrotation
					JOINT LeftArm
					{
						OFFSET 3.30655 1.16959 -0.30867
						CHANNELS 3 Zrotation Yrotation Xrotation
						JOINT LeftForeArm
						{
							OFFSET 5.35289 -0.00000 -0.00000
							CHANNELS 3 Zrotation Yrotation Xrotation
							JOINT LeftHand
							{
								OFFSET 3.27727 -0.00000 -0.00000
								CHANNELS 3 Zrotation Yrotation Xrotation
								JOINT LeftFingerBase
								{
									OFFSET 0 0 0
									CHANNELS 3 Zrotation Yrotation Xrotation
									JOINT LeftHandIndex1
									{
										OFFSET 0.54443 0.00002 0.00009
										CHANNELS 3 Zrotation Yrotation Xrotation
										End Site
										{
											OFFSET 0.43891 -0.00000 -0.00000
										}
									}
								}
								JOINT LThumb
								{
									OFFSET 0 0 0
									CHANNELS 3 Zrotation Yrotation Xrotation
									End Site
									{
										OFFSET 0.44564 0.00002 0.44570
									}
								}
							}
						}
					}
				}
				JOINT RightShoulder
				{
					OFFSET 0 0 0
					CHANNELS 3 Zrotation Yrotation Xrotation
					JOINT RightArm
					{
						OFFSET -3.27172 0.97864 -0.36131
						CHANNELS 3 Zrotation Yrotation Xrotation
						JOINT RightForeArm
						{
							OFFSET -5.52076 -0.00317 -0.00590
							CHANNELS 3 Zrotation Yrotation Xrotation
							JOINT RightHand
							{
								OFFSET -3.32364 -0.00000 -0.00000
								CHANNELS 3 Zrotation Yrotation Xrotation
								JOINT RightFingerBase
								{
									OFFSET 0 0 0
									CHANNELS 3 Zrotation Yrotation Xrotation
									JOINT RightHandIndex1
									{
										OFFSET -0.73223 -0.00000 -0.00000
										CHANNELS 3 Zrotation Yrotation Xrotation
										End Site
										{
											OFFSET -0.59035 -0.00000 -0.00000
										}
									}
								}
								JOINT RThumb
								{
									OFFSET 0 0 0
									CHANNELS 3 Zrotation Yrotation Xrotation
									End Site
									{
										OFFSET -0.59936 -0.00000 0.59936
									}
								}
							}
						}
					}
				}
			}
		}
	}
}
MOTION
Frames: 7
Frame Time: .0083333
21.6598 16.9191 28.3525 367.1530 -45.2775 719.9100 0.0000 0.0000 0.0000 -13.0951 -8.2446 -2.7866 3.3476 11.2376 33.0853 -0.2931 -18.0918 -9.8287 2.2489 -9.3663 -26.9481 0.0000 0.0000 0.0000 11.9018 -0.6749 -30.2413 -1.8214 -8.4837 24.1930 1.5629 21.4743 7.7687 -2.0418 -8.9525 25.6470 -12.9105 -1.5127 3.0015 0.4715 -2.2954 2.6512 7.7778 -1.3955 1.6473 13.4195 8.8302 -9.0788 -9.8939 12.6944 35.3421 -4.5041 5.7864 15.5525 0.0000 0.0000 0.0000 -78.6845 -6.8254 23.9894 49.0630 -52.6105 -25.4277 -0.0000 0.0000 -8.6176 10.8115 18.8404 3.5289 -7.1250 0.0000 -0.0000 -16.8185 48.3924 -1.4454 0.0000 0.0000 0.0000 74.5550 -16.5158 44.7570 -25.2711 36.4798 -8.4506 0.0000 -0.0000 -7.2889 -11.7885 20.7039 -4.2199 7.1250 -0.0000 -0.0000 10.6858 -9.1600 9.0108
21.5368 16.9241 28.3529 366.7280 -46.1128 720.3650 0.0000 0.0000 0.0000 -12.4227 -7.6970 -3.1779 3.4861 11.4432 33.7897 -0.3680 -17.4877 -8.4197 2.0658 -9.0018 -25.8011 0.0000 0.0000 0.0000 12.7744 -0.3797 -30.4896 -1.8916 -8.6365 24.6646 1.4388 20.6580 7.3238 -1.8046 -8.4465 24.0788 -12.2610 -1.2012 2.6718 0.6071 -1.8208 2.6721 7.5469 -1.1534 1.7227 13.2089 8.6005 -9.1248 -9.7753 12.3414 35.1988 -4.4740 5.6255 15.3979 0.0000 -0.0000 0.0000 -78.7357 -6.3254 23.5556 48.2838 -52.2794 -24.8101 -0.0000 0.0000 -9.0894 10.8643 19.2248 3.6160 -7.1250 0.0000 -0.0000 -16.9219 48.7710 -1.6163 0.0000 -0.0000 0.0000 74.8263 -16.4031 44.4383 -25.1767 36.3840 -8.3945 0.0000 -0.0000 -6.9665 -11.4327 21.2930 -4.2001 7.1250 -0.0000 -0.0000 10.9231 -8.6107 9.3405
21.4197 16.9164 28.3444 365.8130 -46.4755 721.1430 0.0000 0.0000 0.0000 -11.3287 -7.2775 -3.8367 3.7071 11.7601 34.8885 -0.4199 -16.9781 -7.2498 2.1151 -9.1018 -26.1141 0.0000 0.0000 0.0000 13.8815 -0.1982 -30.4946 -1.9251 -8.7084 24.8873 1.3752 20.2308 6.8841 -1.5613 -7.8854 22.3664 -11.3377 -1.0227 2.6725 0.8696 -1.5703 2.6493 7.3048 -1.0064 1.6153 12.8900 8.3719 -9.2603 -9.5177 11.9641 35.1621 -4.3700 5.4522 15.2937 0.0000 -0.0000 0.0000 -78.8260 -5.8148 23.1246 47.2672 -51.8321 -24.0083 -0.0000 0.0000 -9.3245 11.3344 19.2376 3.7785 -7.1250 0.0000 -0.0000 -16.4894 48.8514 -1.6063 0.0000 -0.0000 0.0000 75.1642 -16.0907 44.0495 -24.8949 36.0964 -8.2279 0.0000 -0.0000 -6.5511 -11.0613 22.0211 -4.1922 7.1250 -0.0000 -0.0000 11.1722 -7.9268 9.7162
21.2839 16.9232 28.3933 365.5350 -47.0952 720.6820 0.0000 0.0000 0.0000 -11.1278 -6.7656 -3.1891 3.9393 12.0791 36.0125 -0.4148 -16.4599 -6.7484 1.9739 -8.8115 -25.2075 0.0000 0.0000 0.0000 14.5027 -0.9294 -29.7187 -1.9591 -8.7803 25.1105 1.2126 19.0470 7.0676 -1.5321 -7.8148 22.1529 -10.9077 -0.8872 2.6184 1.2023 -1.3614 3.0767 7.4089 -0.9433 2.0482 12.3636 8.2843 -9.5339 -9.4525 11.9043 35.1250 -4.2516 5.3586 15.2746 -0.0000 0.0000 0.0000 -79.3993 -5.3756 22.1749 46.0866 -51.2898 -23.0836 -0.0000 0.0000 -9.3918 11.6126 19.3840 3.9018 -7.1250 0.0000 -0.0000 -16.2880 49.0338 -1.6604 -0.0000 0.0000 0.0000 74.8215 -15.4572 44.3129 -24.6901 35.8856 -8.1076 0.0000 -0.0000 -6.2911 -10.8994 21.8048 -4.0911 7.1250 -0.0000 -0.0000 11.2692 -8.1580 9.7516
21.1805 16.9293 28.3907 365.4630 -47.6449 721.0660 0.0000 0.0000 0.0000 -10.7564 -6.6882 -4.1422 4.2286 12.4585 37.3738 -0.4370 -15.7496 -5.5985 1.7895 -8.4131 -23.9760 0.0000 0.0000 0.0000 14.8483 -0.5502 -30.0266 -1.9990 -8.8640 25.3709 1.2068 19.0069 6.8325 -1.5719 -7.9107 22.4433 -10.8219 -0.9277 2.4592 1.4718 -1.4005 3.0160 7.6461 -0.9639 2.0874 12.2196 8.2827 -9.6203 -9.6181 11.9730 34.9865 -4.2780 5.3473 15.2391 -0.0000 0.0000 0.0000 -79.7245 -4.7586 20.9072 44.7607 -50.6507 -22.0535 -0.0000 0.0000 -9.5770 11.5971 19.4641 3.9119 -7.1250 0.0000 -0.0000 -16.3345 49.1092 -1.6963 -0.0000 0.0000 0.0000 74.4163 -15.0699 44.9755 -24.7732 35.9712 -8.1563 0.0000 -0.0000 -5.9522 -10.7493 21.3478 -3.9533 7.1250 -0.0000 -0.0000 11.3554 -8.6261 9.7218
21.0621 16.9251 28.3846 365.0930 -48.2704 721.4030 0.0000 0.0000 0.0000 -10.1796 -6.3158 -4.8363 4.5206 12.8227 38.7085 -0.4474 -14.9373 -4.3759 1.9353 -8.7299 -24.9541 0.0000 0.0000 0.0000 15.4324 0.0105 -29.7978 -2.0165 -8.9004 25.4843 1.2256 19.1519 6.6530 -1.6112 -8.0044 22.7274 -10.9729 -1.1414 2.4342 1.8652 -1.6870 3.1001 8.1525 -1.1321 2.2731 12.3581 8.4590 -9.7215 -10.0276 12.3174 34.8273 -4.4073 5.4579 15.2919 0.0000 0.0000 0.0000 -80.1189 -4.0238 18.8188 43.3730 -49.9461 -20.9859 -0.0000 0.0000 -9.6855 11.7585 19.4261 3.9603 -7.1250 0.0000 -0.0000 -16.1684 49.0960 -1.6729 0.0000 0.0000 0.0000 73.9146 -14.2858 46.0608 -24.7072 35.9032 -8.1176 0.0000 -0.0000 -5.3870 -10.6101 21.4770 -3.9235 7.1250 -0.0000 -0.0000 11.4452 -8.5121 9.8285
20.9545 16.9192 28.3777 365.2350 -48.8076 721.1870 0.0000 0.0000 0.0000 -10.0099 -6.1709 -5.6096 4.9246 13.2984 40.4958 -0.4497 -14.0729 -3.0569 2.0632 -8.9965 -25.7842 0.0000 0.0000 0.0000 15.7207 0.1867 -29.4138 -2.0068 -8.8802 25.4213 1.2029 18.9858 6.4872 -1.6643 -8.1288 23.1060 -11.3483 -1.2978 2.7161 2.1230 -1.9344 3.2278 8.6513 -1.2806 2.3339 12.5223 8.6123 -9.9806 -10.4042 12.6011 34.7271 -4.5349 5.5450 15.4031 0.0000 -0.0000 0.0000 -80.5838 -3.3240 16.9050 42.0532 -49.2404 -19.9808 -0.0000 0.0000 -9.7565 12.5092 19.6431 4.2653 -7.1250 0.0000 -0.0000 -15.5500 49.4185 -1.7318 0.0000 -0.0000 0.0000 73.6005 -13.4316 46.8318 -24.6970 35.8927 -8.1116 0.0000 -0.0000 -4.8012 -10.4702 21.2603 -3.8336 7.1250 -0.0000 -0.0000 11.5301 -8.7404 9.8511
